# https://github.com/mikedh/trimesh
v -169.35000000 -87.35000000 -23.00000000 0.46666667 0.70588235 0.85882353
v -169.35000000 26.25000000 -23.00000000 0.43921569 0.68235294 0.84313725
v -121.75000000 26.25000000 -23.00000000 0.46666667 0.70588235 0.85882353
v -121.75000000 87.35000000 -23.00000000 0.43921569 0.68235294 0.84313725
v 77.95000000 87.35000000 -23.00000000 0.43921569 0.68235294 0.84313725
v 77.95000000 8.55000000 -23.00000000 0.43921569 0.68235294 0.84313725
v 169.35000000 8.55000000 -23.00000000 0.43921569 0.68235294 0.84313725
v 169.35000000 -87.35000000 -23.00000000 0.40000000 0.65098039 0.81960784
v 151.65000000 -9.15000000 -23.00000000 0.48627451 0.72156863 0.87058824
v 35.75000000 -9.15000000 -23.00000000 0.43921569 0.68235294 0.84313725
v 35.75000000 -26.15000000 -23.00000000 0.40000000 0.65098039 0.81960784
v 66.45000000 -26.15000000 -23.00000000 0.40000000 0.65098039 0.81960784
v 66.45000000 -44.25000000 -23.00000000 0.34117647 0.60392157 0.78823529
v 18.05000000 -44.25000000 -23.00000000 0.46666667 0.70588235 0.85882353
v 18.05000000 8.55000000 -23.00000000 0.43921569 0.68235294 0.84313725
v 60.25000000 8.55000000 -23.00000000 0.46666667 0.70588235 0.85882353
v 60.25000000 69.65000000 -23.00000000 0.43921569 0.68235294 0.84313725
v -103.95000000 69.65000000 -23.00000000 0.43921569 0.68235294 0.84313725
v -103.95000000 26.25000000 -23.00000000 0.43921569 0.68235294 0.84313725
v -41.25000000 26.25000000 -23.00000000 0.43921569 0.68235294 0.84313725
v -41.25000000 -26.75000000 -23.00000000 0.40000000 0.65098039 0.81960784
v -89.85000000 -26.75000000 -23.00000000 0.40000000 0.65098039 0.81960784
v -89.85000000 -8.75000000 -23.00000000 0.34117647 0.60392157 0.78823529
v -59.05000000 -8.75000000 -23.00000000 0.46666667 0.70588235 0.85882353
v -59.05000000 8.55000000 -23.00000000 0.48627451 0.72156863 0.87058824
v -151.65000000 8.55000000 -23.00000000 0.43921569 0.68235294 0.84313725
v -151.65000000 -69.65000000 -23.00000000 0.40000000 0.65098039 0.81960784
v 151.65000000 -69.65000000 -23.00000000 0.46666667 0.70588235 0.85882353
v -169.35000000 -87.35000000 23.00000000 0.46666667 0.70588235 0.85882353
v -169.35000000 26.25000000 23.00000000 0.43921569 0.68235294 0.84313725
v -121.75000000 26.25000000 23.00000000 0.46666667 0.70588235 0.85882353
v -121.75000000 87.35000000 23.00000000 0.43921569 0.68235294 0.84313725
v 77.95000000 87.35000000 23.00000000 0.43921569 0.68235294 0.84313725
v 77.95000000 8.55000000 23.00000000 0.43921569 0.68235294 0.84313725
v 169.35000000 8.55000000 23.00000000 0.43921569 0.68235294 0.84313725
v 169.35000000 -87.35000000 23.00000000 0.40000000 0.65098039 0.81960784
v 151.65000000 -9.15000000 23.00000000 0.48627451 0.72156863 0.87058824
v 35.75000000 -9.15000000 23.00000000 0.43921569 0.68235294 0.84313725
v 35.75000000 -26.15000000 23.00000000 0.40000000 0.65098039 0.81960784
v 66.45000000 -26.15000000 23.00000000 0.40000000 0.65098039 0.81960784
v 66.45000000 -44.25000000 23.00000000 0.34117647 0.60392157 0.78823529
v 18.05000000 -44.25000000 23.00000000 0.46666667 0.70588235 0.85882353
v 18.05000000 8.55000000 23.00000000 0.43921569 0.68235294 0.84313725
v 60.25000000 8.55000000 23.00000000 0.46666667 0.70588235 0.85882353
v 60.25000000 69.65000000 23.00000000 0.43921569 0.68235294 0.84313725
v -103.95000000 69.65000000 23.00000000 0.43921569 0.68235294 0.84313725
v -103.95000000 26.25000000 23.00000000 0.43921569 0.68235294 0.84313725
v -41.25000000 26.25000000 23.00000000 0.43921569 0.68235294 0.84313725
v -41.25000000 -26.75000000 23.00000000 0.40000000 0.65098039 0.81960784
v -89.85000000 -26.75000000 23.00000000 0.40000000 0.65098039 0.81960784
v -89.85000000 -8.75000000 23.00000000 0.34117647 0.60392157 0.78823529
v -59.05000000 -8.75000000 23.00000000 0.46666667 0.70588235 0.85882353
v -59.05000000 8.55000000 23.00000000 0.48627451 0.72156863 0.87058824
v -151.65000000 8.55000000 23.00000000 0.43921569 0.68235294 0.84313725
v -151.65000000 -69.65000000 23.00000000 0.40000000 0.65098039 0.81960784
v 151.65000000 -69.65000000 23.00000000 0.46666667 0.70588235 0.85882353
f 26 27 1
f 22 23 24
f 21 22 24
f 20 21 24
f 12 13 14
f 11 12 14
f 10 11 14
f 1 27 28
f 8 1 28
f 7 8 28
f 26 1 2
f 25 26 2
f 20 24 25
f 19 20 25
f 10 14 15
f 9 10 15
f 7 28 9
f 6 7 9
f 25 2 3
f 19 25 3
f 18 19 3
f 9 15 16
f 6 9 16
f 5 6 16
f 18 3 4
f 17 18 4
f 5 16 17
f 4 5 17
f 29 55 54
f 52 51 50
f 52 50 49
f 52 49 48
f 42 41 40
f 42 40 39
f 42 39 38
f 56 55 29
f 56 29 36
f 56 36 35
f 30 29 54
f 30 54 53
f 53 52 48
f 53 48 47
f 43 42 38
f 43 38 37
f 37 56 35
f 37 35 34
f 31 30 53
f 31 53 47
f 31 47 46
f 44 43 37
f 44 37 34
f 44 34 33
f 32 31 46
f 32 46 45
f 45 44 33
f 45 33 32
f 29 30 1
f 1 30 2
f 30 31 2
f 2 31 3
f 31 32 3
f 3 32 4
f 32 33 4
f 4 33 5
f 33 34 5
f 5 34 6
f 34 35 6
f 6 35 7
f 36 29 8
f 8 29 1
f 35 36 7
f 7 36 8
f 37 38 9
f 9 38 10
f 38 39 10
f 10 39 11
f 39 40 11
f 11 40 12
f 40 41 12
f 12 41 13
f 41 42 13
f 13 42 14
f 42 43 14
f 14 43 15
f 43 44 15
f 15 44 16
f 44 45 16
f 16 45 17
f 45 46 17
f 17 46 18
f 46 47 18
f 18 47 19
f 47 48 19
f 19 48 20
f 48 49 20
f 20 49 21
f 49 50 21
f 21 50 22
f 50 51 22
f 22 51 23
f 51 52 23
f 23 52 24
f 52 53 24
f 24 53 25
f 53 54 25
f 25 54 26
f 54 55 26
f 26 55 27
f 56 37 28
f 28 37 9
f 55 56 27
f 27 56 28

